<svg width="213" height="25" viewBox="0 0 213 25" fill="none" xmlns="http://www.w3.org/2000/svg">
<path d="M0.255682 0.727272H3.61932L11.5284 20.0455H11.8011L19.7102 0.727272H23.0739V24H20.4375V6.31818H20.2102L12.9375 24H10.392L3.11932 6.31818H2.89205V24H0.255682V0.727272ZM29.679 24H26.7244L35.2699 0.727272H38.179L46.7244 24H43.7699L36.8153 4.40909H36.6335L29.679 24ZM30.7699 14.9091H42.679V17.4091H30.7699V14.9091ZM50.3494 24V0.727272H58.2131C60.0313 0.727272 61.5237 1.03788 62.6903 1.65909C63.857 2.27273 64.7206 3.11742 65.2812 4.19318C65.8419 5.26894 66.1222 6.49242 66.1222 7.86364C66.1222 9.23485 65.8419 10.4508 65.2812 11.5114C64.7206 12.572 63.8608 13.4053 62.7017 14.0114C61.5426 14.6098 60.0616 14.9091 58.2585 14.9091H51.8949V12.3636H58.1676C59.41 12.3636 60.41 12.1818 61.1676 11.8182C61.9328 11.4545 62.4858 10.9394 62.8267 10.2727C63.1752 9.59848 63.3494 8.79545 63.3494 7.86364C63.3494 6.93182 63.1752 6.11742 62.8267 5.42045C62.4782 4.72348 61.9214 4.18561 61.1562 3.80682C60.3911 3.42045 59.3797 3.22727 58.1222 3.22727H53.1676V24H50.3494ZM61.304 13.5455L67.0312 24H63.7585L58.1222 13.5455H61.304ZM73.6364 0.727272V24H70.8182V0.727272H73.6364ZM80.2415 24H77.2869L85.8324 0.727272H88.7415L97.2869 24H94.3324L87.3778 4.40909H87.196L80.2415 24ZM81.3324 14.9091H93.2415V17.4091H81.3324V14.9091ZM128.639 8H125.821C125.654 7.18939 125.363 6.47727 124.946 5.86364C124.537 5.25 124.037 4.73485 123.446 4.31818C122.863 3.89394 122.215 3.57576 121.503 3.36364C120.791 3.15151 120.048 3.04545 119.276 3.04545C117.866 3.04545 116.59 3.40151 115.446 4.11364C114.31 4.82576 113.404 5.875 112.73 7.26136C112.063 8.64773 111.73 10.3485 111.73 12.3636C111.73 14.3788 112.063 16.0795 112.73 17.4659C113.404 18.8523 114.31 19.9015 115.446 20.6136C116.59 21.3258 117.866 21.6818 119.276 21.6818C120.048 21.6818 120.791 21.5758 121.503 21.3636C122.215 21.1515 122.863 20.8371 123.446 20.4205C124.037 19.9962 124.537 19.4773 124.946 18.8636C125.363 18.2424 125.654 17.5303 125.821 16.7273H128.639C128.427 17.9167 128.041 18.9811 127.48 19.9205C126.92 20.8598 126.223 21.6591 125.389 22.3182C124.556 22.9697 123.62 23.4659 122.582 23.8068C121.552 24.1477 120.45 24.3182 119.276 24.3182C117.291 24.3182 115.526 23.8333 113.98 22.8636C112.435 21.8939 111.219 20.5152 110.332 18.7273C109.446 16.9394 109.003 14.8182 109.003 12.3636C109.003 9.90909 109.446 7.78788 110.332 6C111.219 4.21212 112.435 2.83333 113.98 1.86364C115.526 0.893939 117.291 0.40909 119.276 0.40909C120.45 0.40909 121.552 0.579545 122.582 0.920454C123.62 1.26136 124.556 1.76136 125.389 2.42045C126.223 3.07197 126.92 3.86742 127.48 4.80682C128.041 5.73864 128.427 6.80303 128.639 8ZM133.193 24V0.727272H136.011V21.5H146.83V24H133.193ZM153.616 24H150.662L159.207 0.727272H162.116L170.662 24H167.707L160.753 4.40909H160.571L153.616 24ZM154.707 14.9091H166.616V17.4091H154.707V14.9091ZM174.287 24V0.727272H182.151C183.969 0.727272 185.461 1.03788 186.628 1.65909C187.795 2.27273 188.658 3.11742 189.219 4.19318C189.779 5.26894 190.06 6.49242 190.06 7.86364C190.06 9.23485 189.779 10.4508 189.219 11.5114C188.658 12.572 187.798 13.4053 186.639 14.0114C185.48 14.6098 183.999 14.9091 182.196 14.9091H175.832V12.3636H182.105C183.348 12.3636 184.348 12.1818 185.105 11.8182C185.87 11.4545 186.423 10.9394 186.764 10.2727C187.113 9.59848 187.287 8.79545 187.287 7.86364C187.287 6.93182 187.113 6.11742 186.764 5.42045C186.416 4.72348 185.859 4.18561 185.094 3.80682C184.329 3.42045 183.317 3.22727 182.06 3.22727H177.105V24H174.287ZM185.241 13.5455L190.969 24H187.696L182.06 13.5455H185.241ZM195.71 24H192.756L201.301 0.727272H204.21L212.756 24H209.801L202.847 4.40909H202.665L195.71 24ZM196.801 14.9091H208.71V17.4091H196.801V14.9091Z" fill="#77B3BD"/>
</svg>
